<svg xmlns="http://www.w3.org/2000/svg" viewBox="0 0 512 512">
  <rect width="512" height="512" rx="112" fill="#0a0a0b"/>

  <!-- figure: legs, torso, arms, head/hat (lime) -->
  <g fill="#c8f542">
    <path d="M 244,262 L 196,330 L 206,420" stroke="#c8f542" stroke-width="34" stroke-linecap="round" stroke-linejoin="round" fill="none"/>
    <path d="M 268,262 L 316,330 L 306,420" stroke="#c8f542" stroke-width="34" stroke-linecap="round" stroke-linejoin="round" fill="none"/>
    <ellipse cx="196" cy="426" rx="30" ry="14" transform="rotate(-10 196 426)"/>
    <ellipse cx="316" cy="426" rx="30" ry="14" transform="rotate(10 316 426)"/>
    <rect x="230" y="176" width="52" height="90" rx="26"/>
    <path d="M 238,190 L 140,64" stroke="#c8f542" stroke-width="30" stroke-linecap="round" fill="none"/>
    <path d="M 274,190 L 372,64" stroke="#c8f542" stroke-width="30" stroke-linecap="round" fill="none"/>
    <circle cx="256" cy="150" r="30"/>
    <ellipse cx="256" cy="118" rx="50" ry="16"/>
    <rect x="226" y="78" width="60" height="42" rx="18"/>
  </g>

  <!-- barbell + plates (amber accent, on top) -->
  <g fill="#ffb020">
    <rect x="110" y="54" width="292" height="20" rx="10"/>
    <circle cx="120" cy="64" r="34"/>
    <circle cx="392" cy="64" r="34"/>
  </g>
</svg>
